PathFileType	4	(X/Y/Z)	13_2_43_p1_0-236_filt_butterworth.trc
DataRate	CameraRate	NumFrames	NumMarkers	Units	OrigDataRate	OrigDataStartFrame	OrigNumFrames
60.0	60.0	6	27	m	60.0	118	236
Frame#	Time	RHip			RKnee			RAnkle			RBigToe			RSmallToe			RHeel			LHip			LKnee			LAnkle			LBigToe			LSmallToe			LHeel			Neck			Head			Nose			RShoulder			RElbow			RWrist			RThumb			RIndex			RPinky			LShoulder			LElbow			LWrist			LThumb			LIndex			LPinky			
		X1	Y1	Z1	X2	Y2	Z2	X3	Y3	Z3	X4	Y4	Z4	X5	Y5	Z5	X6	Y6	Z6	X7	Y7	Z7	X8	Y8	Z8	X9	Y9	Z9	X10	Y10	Z10	X11	Y11	Z11	X12	Y12	Z12	X13	Y13	Z13	X14	Y14	Z14	X15	Y15	Z15	X16	Y16	Z16	X17	Y17	Z17	X18	Y18	Z18	X19	Y19	Z19	X20	Y20	Z20	X21	Y21	Z21	X22	Y22	Z22	X23	Y23	Z23	X24	Y24	Z24	X25	Y25	Z25	X26	Y26	Z26	X27	Y27	Z27	
118	1.9666666666666663	0.2664668302816963	0.3687045408824727	1.1528204514929314	0.2752892963381611	-0.0943703816095176	1.1731620511571166	0.2625201342037208	-0.5192527841681596	1.204670905947051	0.25678047928916	-0.5009596148830693	0.9779468247835004	0.3255657464850874	-0.5244141807792237	1.0344563310429709	0.24699425022387198	-0.5818716036975204	1.2498610222665092	0.05655316277274337	0.3666609768341292	1.148878671837431	0.06115522816704545	-0.07857452776604967	1.1576030228760374	0.0685321954692582	-0.48958272117789847	1.1434931181322672	0.08814347251695062	-0.525331047414868	1.0053907158360282	0.02975277125264997	-0.5162041358114204	1.0176707819961184	0.08225237770408884	-0.560494937686412	1.214428426966323	0.1599565732140232	0.8737768644730597	1.1595310050734922	0.16336589771740828	1.1265247372835565	1.0811894573619918	0.15125537785687387	1.0117498773988522	0.999505535683001	0.3106888172617066	0.806635753157775	1.121686075253545	0.37945691507117507	0.5101290209359084	1.1928425192110765	0.3909850748657384	0.2802235084219864	1.151664956733795	0.3431022262020772	0.19119472881701144	1.1014033209598555	0.36530133205102144	0.16052638419001475	1.1408905340569422	0.3829246890090886	0.1529796198258916	1.1676083241550659	0.018941280140681475	0.8136874591026992	1.1399057057067346	-0.04753168764933941	0.54257837841164	1.1572609243587744	-0.05229731081717412	0.29880777091849137	1.1717920669080173	-0.017348051588925682	0.16864182006957212	1.2124007250549265	-0.03882376055056851	0.1599802228641496	1.1868446862463877	-0.05138099185106913	0.15999514931074765	1.2052848726904681	
119	1.9833333333333327	0.2664112144999505	0.36828559108181474	1.1527142198423674	0.27531920520966535	-0.09455804672725698	1.173123926952573	0.26221269031552524	-0.5187034919115605	1.2039911488524928	0.2569362082266875	-0.5008114054919934	0.9780277334455982	0.3265114659923021	-0.5231982862519869	1.033013938826316	0.24711031983920306	-0.5815063211407754	1.2499757833662934	0.05647703996473423	0.36639972295626216	1.148782872266598	0.06134113134423854	-0.07884603763416181	1.157267659398177	0.06815484913918038	-0.49028266125273545	1.1444695934695273	0.0877234590731272	-0.5235379087198857	1.002655363110495	0.030758556677676137	-0.5173998958028652	1.0182865928474918	0.08252803415555604	-0.560872846002261	1.2147444745065097	0.159951116379419	0.8738182491466288	1.15947601267399	0.16337998273673074	1.1272543365860062	1.0812176820708619	0.152066614208313	1.011807701525579	0.9998291399349979	0.30998520303556587	0.807161471530303	1.119418709851069	0.3801517527491899	0.5104062913503672	1.193110603754125	0.39183428042364465	0.28009040880945973	1.1519308395766856	0.343169201076714	0.1911247798549855	1.1015633002703842	0.36529716159826864	0.15819017952126335	1.1449571133281857	0.38356756081785964	0.15244836137000212	1.1676386226522846	0.018957694938495324	0.8136151960296654	1.139892791596959	-0.047581251531914635	0.5432920397493421	1.1575521535740116	-0.0523919195154873	0.29875331291331514	1.171754960992268	-0.017340545247293213	0.16797419393967167	1.2119491339465214	-0.03831397258451587	0.15975653847269816	1.1895934994018542	-0.05066294322106518	0.1587421480856555	1.2114970023933402	
120	2.0	0.26638933560819683	0.36779680315263596	1.1525584231844919	0.2754201318105229	-0.0947891069204691	1.1730904322279838	0.26190810748280846	-0.5183880730654999	1.2037956829865566	0.2570674489725079	-0.500596420446131	0.9780025536681087	0.327880587583372	-0.5216874380292393	1.030954379721774	0.24725167951072216	-0.5809124554939967	1.2500713389493305	0.05640142633324646	0.3659868026255716	1.1486396586638554	0.061519436613438075	-0.07910862863379703	1.1569934264380826	0.06779966415753758	-0.4911374574182324	1.145597154110025	0.08717426277120881	-0.5214346335936435	1.0000478187466952	0.03179483074798809	-0.5182507937015742	1.0188931574758995	0.08282850348725729	-0.5615560863490343	1.2151743364203769	0.15994035522116173	0.8738692002047139	1.159420000073991	0.16339627717127925	1.1279407417462841	1.0811929730569292	0.15268991841875293	1.0117505050727118	1.0000113563273594	0.3091816924002165	0.8077617425253805	1.1168330308312096	0.38064558557791317	0.5107326141845275	1.1932263671618086	0.3927450912558882	0.28011179847920076	1.152226085941951	0.3432431603338943	0.19122870809069276	1.1016855459627206	0.36528499379336865	0.1571037038049911	1.1469847002765974	0.3843227712875722	0.15210591417590086	1.1677847605107066	0.018977499730995474	0.8135442325264748	1.1398765157524497	-0.047596599106621194	0.5439809885068423	1.1578084764696654	-0.052533208711220525	0.2990459377480385	1.1716077345455735	-0.01729522094192034	0.16780190403210532	1.2115092218181607	-0.03769386064781175	0.1592995522002092	1.1926241578943775	-0.049851124761680785	0.15723875841957907	1.218160224383709	
121	2.0166666666666666	0.2664259432982887	0.3672455160728602	1.1523193117616686	0.27557884943761424	-0.0950639280949565	1.1730504276299252	0.26171945963533816	-0.518344361835189	1.2040705767176336	0.2571257264796619	-0.5002779650206651	0.9777749932292849	0.3294547070142998	-0.5206391808483771	1.0293617551883325	0.24743105943655622	-0.5802886890614828	1.2501518925672295	0.05637979509614444	0.3654031621894347	1.1485109020200015	0.06163130719501228	-0.07943704474461355	1.1569303243943048	0.06749952397808509	-0.4920350078347112	1.1466666492059787	0.08654041717435615	-0.5192503852326105	0.997891018662566	0.03271091454484773	-0.5186811578827458	1.0193938349165914	0.08312021146454937	-0.5623872750488559	1.215551607403206	0.15991351044839514	0.8739038820705873	1.1594255661174309	0.16341456036381544	1.1284774443222987	1.0811218807417193	0.15294143367885693	1.011497524424491	0.9999872267416982	0.3083773254568025	0.8083599471846277	1.1142440952847386	0.38094210005314194	0.510878563463786	1.193144414625961	0.3936278140094492	0.2801578826318657	1.1524594793759402	0.3433074629931685	0.19139069046939766	1.1017319627785045	0.3652645729807711	0.15742662439601884	1.1464186052312535	0.3850912363802894	0.1519009586194235	1.168125366286799	0.018994644900296984	0.8135642693620556	1.139863519240064	-0.04757653989925993	0.5445353849149174	1.1580133279299394	-0.05265686887750545	0.2994959157384724	1.171629786974101	-0.017168434322363108	0.16808040381702782	1.2113479486674144	-0.03702604181240175	0.15857643571146146	1.1956647157398024	-0.04902029311904613	0.15554274835436405	1.2242605636269297	
122	2.033333333333333	0.26652387470144645	0.3667020203099863	1.151962142285813	0.27578798878423116	-0.0953527649128198	1.1729872731608262	0.2617246742852356	-0.5184631844148004	1.2046444579544933	0.2570888679170098	-0.4998837547738445	0.9773442510003174	0.3308779493441485	-0.5202050613748478	1.0285535913309132	0.24764872656768008	-0.5798340164614045	1.2502447690617007	0.05641182994200552	0.3647053463731952	1.1484057064722422	0.06166776975046763	-0.07982724795353036	1.157095997434986	0.06724296399404903	-0.4928799112379669	1.1475909777631779	0.08593692885688886	-0.5174143854558368	0.9964001722969005	0.03337167385526212	-0.5187671697279149	1.0197061044537596	0.08339186197611542	-0.5631765007509146	1.2158462590345502	0.15984103083890844	0.8739050243129083	1.1595912379351785	0.16343555690585243	1.1287870820601786	1.081035400086377	0.1527500854767554	1.0110482167259849	0.9997493191985846	0.3077460358596409	0.8088238271786408	1.1122102978643273	0.3810486312770893	0.5106725462605238	1.1929078293036766	0.39436675179388225	0.2801609161677234	1.1525711668141285	0.34334037891559077	0.19152670815896766	1.1017009234132547	0.3652200197447405	0.15891085543018113	1.1434243265694737	0.3857803388396486	0.15174389372974667	1.168635415512321	0.019006212407143105	0.8136719734031158	1.1398503876742754	-0.04753231093502106	0.5448627751966545	1.1581603137795975	-0.052653672451522825	0.2996575601557024	1.172238896456977	-0.01699211336518377	0.1684483642733332	1.2117373776558293	-0.03639301932032103	0.1576034206799154	1.1984251564289092	-0.04826340144909713	0.15376358534700807	1.22906939641398	
123	2.05	0.26664405825473153	0.36626171002497737	1.1514935272748974	0.27605594620227153	-0.09559566410135845	1.172910365009773	0.2619383904260161	-0.5186277961788183	1.2053592016676566	0.2570206719611351	-0.4996294831235584	0.9769988919257196	0.33181137872017236	-0.52006941356824	1.0281686874980864	0.2479231073060453	-0.5796186776751765	1.2503869836259318	0.05646611864905854	0.36395807664480084	1.1483001256981238	0.061656819603368156	-0.08022178795670015	1.1574123028826475	0.06701145979108263	-0.49363374575009766	1.1483547078204206	0.08557853301989221	-0.5165319673767893	0.9956953996565051	0.03370368977909953	-0.5186833415542693	1.0198192957111156	0.08364628635180414	-0.5638242294684953	1.2161145799068696	0.15971434615715158	0.8738947678519372	1.1599298291046862	0.16345554232898996	1.1288713009726972	1.0809848508948188	0.15217919266160218	1.0104604128836938	0.9993456497942084	0.30750980694927865	0.8089868920015632	1.1114467170624562	0.3809993635898452	0.5101096787062325	1.1926398286384716	0.3947881883151039	0.28013966957874714	1.1525646227914437	0.34333422338395037	0.19160566412356544	1.101616767041382	0.3651309830738259	0.1610099928402695	1.1387479183001321	0.38629931763890646	0.1516532394569738	1.1690134570676554	0.01901632003717494	0.8137661399783085	1.1398467617349795	-0.04747965754124759	0.5449437180793888	1.1582647299547448	-0.05244499984246006	0.2992011151384187	1.1737043391007995	-0.016812048272439477	0.1685202656525921	1.2128110870944446	-0.03585271775106439	0.1564185850281649	1.2008582902381981	-0.047664839715639826	0.1521055170779172	1.2324881627418511	
